<svg xmlns="http://www.w3.org/2000/svg" xmlns:xlink="http://www.w3.org/1999/xlink" width="29.073" height="28.939" viewBox="0 0 29.073 28.939"><defs><style>.a{fill:url(#a);}</style><linearGradient id="a" x1="0.169" y1="0.127" x2="0.811" y2="0.905" gradientUnits="objectBoundingBox"><stop offset="0" stop-color="#d501e4"/><stop offset="1" stop-color="#4181ff"/></linearGradient></defs><g transform="translate(-0.9 -1.3)"><g transform="translate(0.9 1.3)"><g transform="translate(0)"><path class="a" d="M18.853,30.239H1.57a.633.633,0,0,1-.67-.67V12.554A11.321,11.321,0,0,1,12.154,1.3h6.565A11.322,11.322,0,0,1,29.973,12.554v6.565A11.093,11.093,0,0,1,18.853,30.239ZM2.24,29.033H18.853a9.892,9.892,0,0,0,9.914-9.914V12.554A10.007,10.007,0,0,0,18.853,2.506h-6.7A10.121,10.121,0,0,0,2.106,12.554V29.033Z" transform="translate(-0.9 -1.3)"/></g><g transform="translate(0 9.858)"><path class="a" d="M20.487,30.68H1.744A.8.8,0,0,1,.9,29.836V27.472a4.47,4.47,0,0,1,4.39-4.39h.844a1.8,1.8,0,0,0,1.52-1.351,3.531,3.531,0,0,1-1.52-2.871V15.315A3.748,3.748,0,0,1,9.849,11.6h2.364a3.748,3.748,0,0,1,3.715,3.715v3.546a3.318,3.318,0,0,1-1.52,2.871,1.379,1.379,0,0,0,1.52,1.351h.844a4.47,4.47,0,0,1,4.39,4.39v2.533C21.331,30.512,20.994,30.68,20.487,30.68Zm-17.9-1.52H19.812V27.472A2.846,2.846,0,0,0,16.941,24.6H16.1a3.027,3.027,0,0,1-3.039-3.039v-.338a.877.877,0,0,1,.338-.675,2.076,2.076,0,0,0,1.182-1.857V15.146a2.235,2.235,0,0,0-2.2-2.2H10.018a2.235,2.235,0,0,0-2.2,2.2v3.546A2.076,2.076,0,0,0,9,20.549a.877.877,0,0,1,.338.675v.338A3.027,3.027,0,0,1,6.3,24.6H5.459a2.959,2.959,0,0,0-2.871,2.871v1.689Z" transform="translate(-0.9 -11.6)"/></g></g></g></svg>