<svg xmlns="http://www.w3.org/2000/svg" width="46.772" height="40.187" viewBox="0 0 46.772 40.187"><defs><style>.a{fill:#4181ff;}</style></defs><g transform="matrix(0.259, -0.966, 0.966, 0.259, 10.606, 39.917)"><g transform="translate(5.684 16.125)"><g transform="translate(0 0)"><g transform="translate(3.433)"><path class="a" d="M9.326,15.908A1.158,1.158,0,0,1,8.1,14.682V7.326A1.158,1.158,0,0,1,9.326,6.1a1.158,1.158,0,0,1,1.226,1.226v7.356A1.158,1.158,0,0,1,9.326,15.908Z" transform="translate(-8.1 -6.1)"/></g><g transform="translate(0 3.678)"><path class="a" d="M15.282,10.052H7.926A1.158,1.158,0,0,1,6.7,8.826,1.158,1.158,0,0,1,7.926,7.6h7.356a1.158,1.158,0,0,1,1.226,1.226A1.314,1.314,0,0,1,15.282,10.052Z" transform="translate(-6.7 -7.6)"/></g></g><g transform="translate(31.139 0)"><g transform="translate(3.678)"><path class="a" d="M22.126,15.908A1.158,1.158,0,0,1,20.9,14.682V7.326a1.226,1.226,0,1,1,2.452,0v7.356A1.313,1.313,0,0,1,22.126,15.908Z" transform="translate(-20.9 -6.1)"/></g><g transform="translate(0 3.678)"><path class="a" d="M27.982,10.052H20.626A1.158,1.158,0,0,1,19.4,8.826,1.158,1.158,0,0,1,20.626,7.6h7.356a1.158,1.158,0,0,1,1.226,1.226A1.313,1.313,0,0,1,27.982,10.052Z" transform="translate(-19.4 -7.6)"/></g></g></g><g transform="translate(13.258 -14.598)"><g transform="translate(0.245)"><path class="a" d="M19.948,10.874a1.474,1.474,0,0,1-.981-.245L13.818,5.234a1.214,1.214,0,1,1,1.716-1.716l5.149,5.149a1.185,1.185,0,0,1,0,1.716C20.438,10.874,20.193,10.874,19.948,10.874Z" transform="translate(-13.45 -3.15)"/></g><g transform="translate(0 0.245)"><path class="a" d="M14.7,10.728a1.474,1.474,0,0,1-.981-.245,1.185,1.185,0,0,1,0-1.716l5.149-5.149a1.214,1.214,0,1,1,1.716,1.716l-5.149,5.149C15.434,10.728,15.189,10.728,14.7,10.728Z" transform="translate(-13.35 -3.25)"/></g></g></g></svg>