<svg xmlns="http://www.w3.org/2000/svg" width="32.511" height="32.447" viewBox="0 0 32.511 32.447"><defs><style>.a{fill:#fff;}</style></defs><g transform="translate(-2.977 -3)"><g transform="translate(2.977 22.766)"><path class="a" d="M7.779,30.173H3.653a.676.676,0,0,1-.676-.676V18.3a.676.676,0,0,1,.676-.676H7.781A1.171,1.171,0,0,1,8.95,18.789V29A1.171,1.171,0,0,1,7.779,30.173Zm-3.45-1.352H7.6V18.972H4.329Z" transform="translate(-2.977 -17.62)"/><g transform="translate(4.621 0.58)"><path class="a" d="M20.612,30.151c-2.008,0-6.074-.452-9.342-.815-1.845-.205-3.439-.383-4.241-.431a.675.675,0,0,1-.634-.675v-8.7a.677.677,0,0,1,.461-.641,16.051,16.051,0,0,1,4.871-.844,10.01,10.01,0,0,1,2.657.338,26.763,26.763,0,0,0,6.8.863,21.239,21.239,0,0,0,2.286-.112,2.4,2.4,0,0,1,2.494,1.1,2.374,2.374,0,0,1,.288,1.391,33.426,33.426,0,0,0,4.129-1.871,3.2,3.2,0,0,1,1.649-.51,2.23,2.23,0,0,1,2.193,1.709c.249,1.232-.322,2.2-1.8,3.054-.314.183-.9.565-1.649,1.053-3.691,2.405-7.447,4.775-9.254,5.039A6.6,6.6,0,0,1,20.612,30.151ZM7.747,27.6c.9.08,2.206.226,3.673.388,3.733.415,8.576.956,9.913.772,1.663-.243,6.423-3.345,8.711-4.835.775-.5,1.383-.9,1.71-1.09,1.322-.764,1.214-1.3,1.149-1.618a.87.87,0,0,0-.867-.623,1.887,1.887,0,0,0-.949.314A45.892,45.892,0,0,1,25.4,23.4a.675.675,0,0,1-.814-.979,1.569,1.569,0,0,0,.205-1.518,1.112,1.112,0,0,0-1.164-.425,22.357,22.357,0,0,1-2.442.122,27.66,27.66,0,0,1-7.164-.911,8.658,8.658,0,0,0-2.3-.289,14.347,14.347,0,0,0-3.98.627V27.6Z" transform="translate(-6.395 -18.049)"/></g><g transform="translate(15.01 4.101)"><path class="a" d="M14.748,24.267a.631.631,0,0,1-.2-.032.651.651,0,0,1-.441-.811c.254-.826.815-.98,4.612-1.268,2.927-.22,3.319-.923,3.323-.93a.612.612,0,0,1,.707-.569.727.727,0,0,1,.618.78c-.035.522-.548,1.767-4.545,2.067a21.566,21.566,0,0,0-3.471.411A.712.712,0,0,1,14.748,24.267Z" transform="translate(-14.079 -20.653)"/></g></g><g transform="translate(9.287 3)"><path class="a" d="M17.589,22.889a9.944,9.944,0,1,1,9.944-9.946A9.957,9.957,0,0,1,17.589,22.889Zm0-18.537a8.592,8.592,0,1,0,8.592,8.59A8.6,8.6,0,0,0,17.589,4.352Z" transform="translate(-7.644 -3)"/><g transform="translate(5.708 6.596)"><circle class="a" cx="1.117" cy="1.117" r="1.117"/><circle class="a" cx="1.117" cy="1.117" r="1.117" transform="translate(6.237)"/></g><g transform="translate(5.295 11.063)"><path class="a" d="M16.211,14.182a6.255,6.255,0,0,1-4.452-1.845.676.676,0,0,1,.956-.956,5.059,5.059,0,0,0,6.992,0,.676.676,0,1,1,.956.956A6.249,6.249,0,0,1,16.211,14.182Z" transform="translate(-11.561 -11.183)"/></g></g></g></svg>