<svg xmlns="http://www.w3.org/2000/svg" xmlns:xlink="http://www.w3.org/1999/xlink" width="23.309" height="23.972" viewBox="0 0 23.309 23.972"><defs><style>.a{fill:url(#a);}</style><linearGradient id="a" y1="0.092" x2="0.5" y2="1.17" gradientUnits="objectBoundingBox"><stop offset="0" stop-color="#d501e4"/><stop offset="1" stop-color="#4181ff"/></linearGradient></defs><g transform="translate(6.047)"><path class="a" d="M16.748,18.563h-3.5A3.862,3.862,0,0,1,9.393,14.7V6.873A3.862,3.862,0,0,1,13.25,3.014h3.5A3.862,3.862,0,0,1,20.6,6.873V14.7A3.861,3.861,0,0,1,16.748,18.563ZM13.25,4.014a2.861,2.861,0,0,0-2.857,2.859V14.7a2.861,2.861,0,0,0,2.857,2.858h3.5A2.86,2.86,0,0,0,19.6,14.7V6.873a2.861,2.861,0,0,0-2.857-2.859Z" transform="translate(-9.393 -3.014)"/></g><g transform="translate(5.174 13.976)"><path class="a" d="M9.02,22.263a.5.5,0,0,1,0-1,1.6,1.6,0,0,0,1.6-1.594V17.49a.5.5,0,0,1,1,0v2.179A2.6,2.6,0,0,1,9.02,22.263Z" transform="translate(-8.52 -16.99)"/><g transform="translate(9.863)"><path class="a" d="M20.979,22.263a2.6,2.6,0,0,1-2.6-2.594V17.49a.5.5,0,0,1,1,0v2.179a1.6,1.6,0,0,0,1.6,1.594.5.5,0,0,1,0,1Z" transform="translate(-18.383 -16.99)"/></g></g><g transform="translate(0 18.248)"><path class="a" d="M26.154,26.986H3.846a.5.5,0,0,1-.5-.5V21.762a.5.5,0,0,1,.5-.5H8.9a.5.5,0,0,1,0,1H4.346v3.724H25.655V22.262H21.1a.5.5,0,0,1,0-1h5.053a.5.5,0,0,1,.5.5v4.724A.5.5,0,0,1,26.154,26.986Z" transform="translate(-3.346 -21.262)"/></g><g transform="translate(14.195 4.318)"><path class="a" d="M19.727,10.02a2.189,2.189,0,0,1-2.186-2.188.5.5,0,0,1,1,0A1.188,1.188,0,0,0,19.727,9.02a.5.5,0,0,1,0,1Z" transform="translate(-17.541 -7.332)"/></g><g transform="translate(6.22 4.318)"><path class="a" d="M10.066,10.02a.5.5,0,0,1,0-1,1.189,1.189,0,0,0,1.188-1.188.5.5,0,1,1,1,0A2.191,2.191,0,0,1,10.066,10.02Z" transform="translate(-9.566 -7.332)"/></g><g transform="translate(8.758 7.629)"><path class="a" d="M13.229,11.643H12.6a.5.5,0,0,1,0-1h.625a.5.5,0,0,1,0,1Z" transform="translate(-12.104 -10.643)"/><g transform="translate(4.166)"><path class="a" d="M17.4,11.643H16.77a.5.5,0,0,1,0-1H17.4a.5.5,0,0,1,0,1Z" transform="translate(-16.27 -10.643)"/></g></g><g transform="translate(7.127 17.647)"><path class="a" d="M15,23.332a6.157,6.157,0,0,1-4.384-1.818.5.5,0,0,1,.707-.707,5.2,5.2,0,0,0,7.354,0,.5.5,0,0,1,.707.707A6.157,6.157,0,0,1,15,23.332Z" transform="translate(-10.473 -20.661)"/></g><g transform="translate(7.513 15.149)"><path class="a" d="M15,20.674a5.61,5.61,0,0,1-4-1.657.5.5,0,1,1,.708-.708,4.65,4.65,0,0,0,6.58,0,.5.5,0,0,1,.707.707A5.615,5.615,0,0,1,15,20.674Z" transform="translate(-10.859 -18.163)"/></g><g transform="translate(11.154 16.66)"><path class="a" d="M15,23.328a.5.5,0,0,1-.5-.5V20.174a.5.5,0,0,1,1,0v2.654A.5.5,0,0,1,15,23.328Z" transform="translate(-14.5 -19.674)"/></g><circle class="a" cx="0.578" cy="0.578" r="0.578" transform="translate(11.076 21.072)"/><g transform="translate(11.904 5.779)"><path class="a" d="M21.018,16.518H15.75a.5.5,0,0,1,0-1h5.268a.5.5,0,0,0,.5-.5V9.293a.5.5,0,0,1,1,0v5.725A1.5,1.5,0,0,1,21.018,16.518Z" transform="translate(-15.25 -8.793)"/><g transform="translate(7.674 1.496)"><path class="a" d="M23.424,12.227a.5.5,0,0,1-.5-.5v-.938a.5.5,0,0,1,1,0v.938A.5.5,0,0,1,23.424,12.227Z" transform="translate(-22.924 -10.289)"/></g></g><g transform="translate(8.011 3.29)"><path class="a" d="M14.64,8.327c-1.347,0-2.54-.11-2.833-.139a.5.5,0,0,1,.1-.995c3.77.377,6.1-.092,6.343-.461a.476.476,0,0,1,.542-.425.516.516,0,0,1,.44.57C19.111,8.071,16.7,8.327,14.64,8.327Z" transform="translate(-11.357 -6.304)"/></g></svg>